<?xml version="1.0" standalone="no"?>
<!DOCTYPE svg PUBLIC "-//W3C//DTD SVG 20010904//EN"
 "http://www.w3.org/TR/2001/REC-SVG-20010904/DTD/svg10.dtd">
<svg version="1.0" xmlns="http://www.w3.org/2000/svg"
 width="260.000000pt" height="260.000000pt" viewBox="0 0 260.000000 260.000000"
 preserveAspectRatio="xMidYMid meet">
<metadata>
Created by potrace 1.14, written by Peter Selinger 2001-2017
</metadata>
<g transform="translate(0.000000,260.000000) scale(0.100000,-0.100000)"
fill="#000000" stroke="none">
<path d="M1185 2068 c-56 -29 -83 -56 -110 -109 -53 -103 -39 -209 51 -379 52
-96 152 -240 168 -240 6 1 36 35 68 78 220 301 240 536 55 642 -44 25 -62 30
-122 29 -51 0 -81 -6 -110 -21z m184 -68 c44 -22 88 -70 97 -106 21 -85 -23
-180 -100 -215 -52 -23 -90 -24 -141 0 -115 52 -144 184 -62 278 56 64 134 80
206 43z"/>
<path d="M915 1883 c-79 -58 -146 -135 -195 -224 l-45 -83 -80 -13 c-222 -36
-404 -208 -446 -421 -17 -90 -7 -213 24 -289 69 -169 218 -297 385 -332 66
-14 276 -14 362 -1 96 15 198 69 261 138 59 64 114 171 129 251 16 84 9 301
-9 301 -3 0 -16 -56 -28 -123 -37 -206 -82 -297 -185 -373 -87 -64 -154 -86
-279 -92 -274 -12 -422 55 -510 233 -32 66 -34 74 -34 180 0 103 2 114 32 178
40 84 118 164 196 201 43 20 86 30 167 39 l109 11 7 31 c13 64 76 174 133 232
56 56 58 60 65 126 3 37 3 67 -1 67 -4 0 -30 -17 -58 -37z"/>
<path d="M1612 1856 c1 -63 2 -66 46 -108 60 -58 116 -146 142 -222 l20 -62
104 -11 c179 -19 297 -96 368 -240 31 -64 33 -74 33 -173 0 -97 -2 -110 -32
-172 -59 -126 -170 -214 -297 -237 -36 -7 -201 -11 -412 -11 -316 0 -353 -2
-365 -17 -8 -9 -41 -34 -73 -55 l-59 -38 454 0 c495 0 519 2 623 58 76 40 187
154 224 232 77 157 77 314 1 468 -78 160 -204 255 -380 289 -46 9 -90 21 -97
26 -7 5 -29 42 -49 81 -39 74 -158 204 -221 239 l-31 18 1 -65z"/>
</g>
</svg>
